<svg xmlns="http://www.w3.org/2000/svg" viewBox="0 0 249.72 97.45"><defs><style>.cls-1{fill:#969696;}.cls-2{fill:#72817c;}.cls-3{fill:#414846;}.cls-4{fill:#4e685c;}.cls-5{fill:#828e8a;}.cls-6{fill:#6c7f78;}.cls-7{fill:#869ba5;}.cls-8{fill:#a9bcc4;}.cls-9{fill:#424846;}.cls-10{fill:#818483;}.cls-11{fill:#525b58;}</style></defs><title>logo</title><g id="Calque_1" data-name="Calque 1"><path class="cls-1" d="M250,100.45c-3.83-2.69-14.37-9.93-18.94-11.48S216,68.37,215.87,67.24l-6.9.24-4.84-9.12L198.61,57l-3.45-6.3-2.76.7s-6.22-5.61-8.29-11.22-9.67-11.21-9.67-11.21-5.52,11.21-7.59,13.32l-2.07-2.81s-8.29,16.82-15.19,21.73-15.88,14-15.88,14-5.29.31-6.22,1.41c-4.14,4.9-9.66,10.51-9.66,10.51s-1.49-4.47-2.76-3.51C108,89,98.88,98,96.39,100.45Z" transform="translate(-0.28 -3)"/><path class="cls-2" d="M94.74,97,76.06,69.23l7.59-2.11,6.91-7,6.21,1.4,7.59-16.82h5.53s1.38-11.21,5.52-17.52l1.38,3.5,5.53-11.21,4.14-1.4s4.14-8.41,6.9-12.62,2.16-.87,2.16-.87c-.86-1.73,5.31,9,7.51,10,0,0,4.83.7,6.9,4.91s3.46,11.21,3.46,11.21l3.45-1.4L159.6,37l3.45-2.8L170,53.81,118.9,95.9Z" transform="translate(-0.28 -3)"/><path class="cls-3" d="M113,100l13.15-7.79L122,89.46l10.36-20.32-2.08-4.21c3.46-2.8,4.15-10.51,4.15-10.51-3.46-1.4-2.77-4.2-2.77-4.2-1.38-6.31.7-13.32.7-13.32-3.46-1.4-3.46-3.5-3.46-3.5a62.42,62.42,0,0,0,3.46-7c3.13-3.18,3-19.63,2.79-23.26-.31.42-.84,1.19-1.76,2.59-2.76,4.2-6.9,12.61-6.9,12.61l-4.15,1.4-5.52,10.51-1.38-2.8C111.25,33.75,109.87,45,109.87,45h-5.53L96.75,61.78l-6.22-1.4-6.9,7L76,69.49l11.17,18C92.79,90,113,100,113,100Z" transform="translate(-0.28 -3)"/><path class="cls-4" d="M126.8,45.05c0-.35-1.72,9.11-1.72,9.11l2.41,3.5-3,12.1a7.7,7.7,0,0,0-.12,3.17l2.14,12.42-16.92,9.11-11-10.87L100.07,77a7.64,7.64,0,0,1,4.09-5.12l4-1.93V58l5.53-5.6-3.46,7,3.11,12.26-1.29,3.92a.38.38,0,0,0,.6.41L114,74.8A8.5,8.5,0,0,0,116.69,67l-.93-5.52s3.79-9.46,3.45-10.51-2.42-7.71-2.42-7.71l3.8,6.3-.69,9.12,1,4.65a.75.75,0,0,0,1.39.21l2.83-5.22-1.73-7Z" transform="translate(-0.28 -3)"/><path class="cls-5" d="M99.32,100.45,114,95.86l-6.9-10.51h-3.46S101.6,79,95.39,76.94a10.57,10.57,0,0,1-6.91-8.41L83,55.91l-.69,7.71L78.13,48.9,68.46,35.59,64.32,44l-1.38-2.1-2.07,4.2s1.38,3.5-4.84,8.41a18.18,18.18,0,0,0-6.9,11.21H45.68s2.07,9.11-5.53,10.52-7.59,3.5-7.59,3.5L28.42,79a25.57,25.57,0,0,1-11,7C11.62,87.8,3,97.31.28,100.45Z" transform="translate(-0.28 -3)"/><path class="cls-6" d="M110.43,100.45l-4.05-6.69s-4,1.43-6-2-1.5-4.56-1.5-4.56-5,1.9-7-4-1-8.56-1-8.56a12.84,12.84,0,0,0-2,6.85,23,23,0,0,0,.5,4l-3-5.71c-.25-1.13-.11-6-1.5-12l-3-6.28L83.11,70a13.74,13.74,0,0,1,0,3.68c-.19,1.58-.48,3.86-.78,5.54l-1.52-2.74a13.85,13.85,0,0,1-1.67-7.72l.19-2.67-2,5.71c-.5,1.52.69,5.26,1,6.85l.5,4.56s1,7.14-6.49,4.57c-5-1.71-6.8,1-6.5,3.42.5,4-1.77,4.52-5.49,5.71a32.85,32.85,0,0,0-7,3.55Z" transform="translate(-0.28 -3)"/><path class="cls-7" d="M120.93,37.16s-1-6.65,1.73-11.56l-5,2.92,4.66-9,3.79-1.75S131,7.91,135.09,3a78.85,78.85,0,0,1,0,13.55c-.69,6.07-1.38,7.94-1.38,7.94s-2.5,7.68-4.75,9.43l-3.8,2.37c-2.15,1.93-1.84,4.45-1.64,6.48Z" transform="translate(-0.28 -3)"/><path class="cls-7" d="M115.39,27.44s-2.57,2.72-4.12,8.67a55.82,55.82,0,0,0-1.55,12.27s1.89-8.23,3.62-11.39c.86-1.58,2.36-4.85,2.36-4.85Z" transform="translate(-0.28 -3)"/><path class="cls-8" d="M143,14.56c-2.07-.7-7.51-11-7.51-11L135.09,3s.52,10.89,0,13.55-2,11.07-3.63,13.61-2.5,3.76-2.5,3.76.82,2.89,3.35,3l2.52.09a3.42,3.42,0,0,1,1.29,3,7.64,7.64,0,0,0,.26,2.71s1.56-3.94,1.47-6.22a5.63,5.63,0,0,0-1.12-3.41s2.85,1.49,3.19,2.8a17.89,17.89,0,0,1,.26,3.86,39.94,39.94,0,0,0,2-6.75c.17-2-2.77-2.45-2.85-3.68a5.81,5.81,0,0,1,.26-2.19L143.81,31l.86,5.78-1.47,3.94,3.54-4-.35-4.56,1.9,3.42,1.64,7.88.18-9-4.06-10.6,1.21-3.68,2.85,9.29,3.36,6.83s-.08,7,0,7.1,2.5-9.2,2.5-9.2l-2.58-3.42s-1.39-7-3.46-11.21S143,14.56,143,14.56Z" transform="translate(-0.28 -3)"/><polygon class="cls-8" points="139.29 41.35 136.88 46.25 142.75 52.21 141.71 58.52 145.16 49.41 138.95 45.2 139.29 41.35"/><polygon class="cls-8" points="144.13 40.3 145.16 44.5 149.31 46.25 149.31 49.41 151.38 43.8 146.2 42.4 144.13 40.3"/><path class="cls-9" d="M151.66,70.28,159.25,64s-1.38-3.5.69-8.41l2.08-4.9,2.07-2.81s-6.91,8.41-7.6,11.92-4.14,6.3-6.9,7a4.65,4.65,0,0,0-2.19,1.7,27.26,27.26,0,0,0-3.34,6l4.15-3.5.69,12.61Z" transform="translate(-0.28 -3)"/><path class="cls-5" d="M159.25,64s.69,3.51,4.15,2.8,2.07,5.61,2.07,5.61.69-3.5-5.53-3.5h-6.21Z" transform="translate(-0.28 -3)"/><path class="cls-5" d="M151.66,70.28s-1.38,6.31,3.45,7.71,7.6,0,7.6,0-4.84,4.2-8.29,3.5a5.76,5.76,0,0,0-5.52,2.1Z" transform="translate(-0.28 -3)"/><path class="cls-10" d="M226.46,100.45l-2.15-2.77a6.77,6.77,0,0,1-3.91-4.87c-.71-3.65-2.14-8.52-2.14-8.52v5.48s-2.13,8.52-5,3.65-11.75-21.91-11.75-21.91S209,91.59,205.8,91,199,77,199,77s0,7.91-1.42,6.08-3.92-17-3.92-17l1.07,14-2.85-6.69-.71-12.17L189,75.77l-1.47-3-.22,5.48a12.22,12.22,0,0,1-6,8.52l-4.39,1.42a18.93,18.93,0,0,1-.59,7.1c-.69,2.35-3.14,4.19-4.81,5.2Z" transform="translate(-0.28 -3)"/><path class="cls-5" d="M204.13,58.36s-1.38,3.51-3.45,4.21a50.2,50.2,0,0,1,4.14,4.91c2.07,2.8,4.84,7.7,4.84,7.7l-.69-7.7S206.89,61.17,204.13,58.36Z" transform="translate(-0.28 -3)"/><path class="cls-5" d="M175.82,37.34A18,18,0,0,1,179.28,43c1.38,3.5,2.07,5.6,2.07,5.6s-.69-8.41-2.76-11.91-3.46-4.21-3.46-4.21Z" transform="translate(-0.28 -3)"/><path class="cls-5" d="M137.33,100.1c.28-1.51.91-4.29,1.9-5.29l8.29-2.11c4.83-3.5,5.52-4.9,5.52-4.9a27,27,0,0,1-9,2.1,56.93,56.93,0,0,1-8.28-.7l-5.69,10.9Z" transform="translate(-0.28 -3)"/><path class="cls-4" d="M203,100.45a6.54,6.54,0,0,0-2.83-.57c-1,.23-4.44-.93-4.44-.93l-.35-.69a7.47,7.47,0,0,1-2.05.11c-.91-.11-.46-3.12-1.14-3s-.8,2.67-1.6,2.78-1.14-1.27-1.71-1.39-1,1.86-1.82,2-1.6-1.5-2-1.5-.92,2-1.37,1.73-.91-5.21-1.6-5.32-.91,3.93-1.59,3.59-.35-5.33-.8-5.33-.69,2.55-.8,3.47S178.14,97,177.46,97s-1.48-9-2.05-9.25-.57,8.33-1.37,8.33-.69-9.38-1.6-9.38-1.37,9.49-2.05,9.73S169.25,91,168.68,91s-.34,5.78-1.26,5.78-1-5.55-1.82-5.44-.91,5.91-2.39,6.14-1.32-2.26-2-2.09-.68,3.48-1.37,3.3-.68-1.56-1.2-.69-2.9,1.74-4.79,1.39-3.25-1.74-5-1.91S145,99.53,145,99.53l-1.45.92Z" transform="translate(-0.28 -3)"/><path class="cls-11" d="M129.79,100.45l6-11.25c4.14-2.1,13.12-5.61,13.12-5.61l2.76-13.31L159,64.2s1.62-4.43,3.69-8.64,9.66-8.41,9.66-8.41a66.17,66.17,0,0,1,3.45-9.81l-1.38-8.41s-5.52,11.21-7.59,13.32l-2.07-2.81s-8.29,16.82-15.19,21.73-15.88,14-15.88,14-5.29.31-6.22,1.41c-4.14,4.9-9.66,10.51-9.66,10.51s-1.49-4.47-2.76-3.51C108,89,98.88,98,96.39,100.45Z" transform="translate(-0.28 -3)"/><path class="cls-9" d="M129.91,100.45l5.87-11.25c-15.19,9.81-5.52-1.4-5.52-1.4l8.28-9.11s-9.67,4.9-13.12,8.41a31.74,31.74,0,0,1-4.53,4,.14.14,0,0,1-.21-.16c.34-1.26,1.6-5.58,3.36-7.37l-9,9.11c-4.15,4.21-8.06,4.68-8.06,4.68l7.37-8.18s-5.53,4.21-9,7a60.16,60.16,0,0,0-4.68,4.24Z" transform="translate(-0.28 -3)"/><path class="cls-10" d="M51.94,100.45l3.75-6.34L55,89.9s-3.45,4.21-8.29,4.91a14.11,14.11,0,0,1-9-2.11c2.76-2.1,8.28-1.4,11.73-3.5s2.08-9.81,2.08-9.81a10.73,10.73,0,0,1-5.53,6c-4.14,1.75-6.9,1.05-15.53,3.85-7.23,2.35-13.24,9.11-15,11.25Z" transform="translate(-0.28 -3)"/><path class="cls-4" d="M16.05,100.45C19.81,96.2,26.3,90.12,32.21,89.2c9-1.4,17.95-3.5,19.34-9.81l.69-7.71L55,66.07l1.38,4.21S58.45,58.36,60.52,57l1.38,2.11s2.76-4.91,1.38-7.71c0,0,6.91-2.81,6.22-7.71-.5-3.56-1-6.37-1.24-7.65l-3.94,8-1.38-2.1-2.07,4.2s1.38,3.5-4.84,8.41a18.18,18.18,0,0,0-6.9,11.21H45.68s2.07,9.11-5.53,10.52-7.59,3.5-7.59,3.5L28.42,79a25.57,25.57,0,0,1-11,7C11.62,87.8,3,97.31.28,100.45Z" transform="translate(-0.28 -3)"/></g><g id="Calque_2" data-name="Calque 2"><path class="cls-3" d="M79.55,15.69c0,1.17,0,2.39,0,3.6v1.25A8,8,0,0,1,79,24a2.71,2.71,0,0,1-2.52,1.61A1.51,1.51,0,0,1,75,24.88.9.9,0,0,1,76,24a1.39,1.39,0,0,1,1.09.66l.39.48-.14.08-.1,0,0-.12a3.39,3.39,0,0,0,.34-1.93c0-1.19,0-3.36-.1-7.44Zm-3.09,0h4v.64l-1.79.18H78.2l-1.74-.18Z" transform="translate(-0.28 -3)"/><path class="cls-3" d="M86.15,21.6c0,.75.25,1,.65,1a2.09,2.09,0,0,0,1.41-1h.46v.8h-.78l.38-.35a2.72,2.72,0,0,1-2.35,1.7c-1,0-1.72-.58-1.7-2.16l0-3.23.38.39-1.07-.24V18L86,17.65l.19.13-.06,1.7Zm1.78,2.1-.1-1.41,0-3.94.38.4-1-.24V18l2.39-.39.19.13,0,1.7v4L89,22.72l1.42.3v.56Z" transform="translate(-0.28 -3)"/><path class="cls-3" d="M94.2,21.05v-.7c0-.66,0-.91,0-1.39l-.73-.1v-.47l2.37-.8.2.13.11,1.47v1.86c0,.74,0,2,0,2.52h-2C94.19,23,94.2,21.79,94.2,21.05Zm-.68,2,1.15-.24h1.26l1.15.24v.56H93.52Zm1.7-3.55h.9l-.16.33c.21-1.47,1.05-2.2,1.77-2.2a1,1,0,0,1,1,.88c0,.63-.37,1-.85,1a1.12,1.12,0,0,1-.93-.56l-.35-.45.48.17a3,3,0,0,0-1,1.67l-.88-.09Z" transform="translate(-0.28 -3)"/><path class="cls-3" d="M104,20.23c.49-.15,1.34-.37,1.91-.51v.5a11.86,11.86,0,0,0-1.56.48,1.29,1.29,0,0,0-.9,1.2c0,.6.31.88.72.88.23,0,.42-.1.8-.38l.48-.36.13.18-.51.54a2.22,2.22,0,0,1-1.82,1,1.44,1.44,0,0,1-1.57-1.54C101.72,21.36,102.19,20.76,104,20.23Zm.91,2.35v-3c0-1.06-.21-1.37-1-1.37a4,4,0,0,0-1.12.17l.82-.47-.08.83c0,.8-.42,1.12-.88,1.12a.74.74,0,0,1-.81-.6c.06-1,1-1.67,2.75-1.67,1.54,0,2.15.65,2.15,2.25v2.69c0,.24.1.35.27.35s.22-.06.36-.26l.32.21a1.37,1.37,0,0,1-1.44.91A1.24,1.24,0,0,1,105,22.58Z" transform="translate(-0.28 -3)"/></g></svg>